<svg xmlns="http://www.w3.org/2000/svg" viewBox="0 0 1235 650">
<rect width="1235" height="650" fill="#fff"/>
<rect y="0.00" width="1235" height="50.00" fill="#b22234"/>
<rect y="100.00" width="1235" height="50.00" fill="#b22234"/>
<rect y="200.00" width="1235" height="50.00" fill="#b22234"/>
<rect y="300.00" width="1235" height="50.00" fill="#b22234"/>
<rect y="400.00" width="1235" height="50.00" fill="#b22234"/>
<rect y="500.00" width="1235" height="50.00" fill="#b22234"/>
<rect y="600.00" width="1235" height="50.00" fill="#b22234"/>
<rect width="494.00" height="350.00" fill="#3c3b6e"/>
<polygon points="41.17,13.30 36.29,28.29 20.53,28.29 33.28,37.56 28.41,52.56 41.17,43.29 53.92,52.56 49.05,37.56 61.80,28.29 46.04,28.29" fill="#fff"/>
<polygon points="123.50,13.30 118.63,28.29 102.86,28.29 115.62,37.56 110.75,52.56 123.50,43.29 136.25,52.56 131.38,37.56 144.14,28.29 128.37,28.29" fill="#fff"/>
<polygon points="205.83,13.30 200.96,28.29 185.20,28.29 197.95,37.56 193.08,52.56 205.83,43.29 218.59,52.56 213.72,37.56 226.47,28.29 210.71,28.29" fill="#fff"/>
<polygon points="288.17,13.30 283.29,28.29 267.53,28.29 280.28,37.56 275.41,52.56 288.17,43.29 300.92,52.56 296.05,37.56 308.80,28.29 293.04,28.29" fill="#fff"/>
<polygon points="370.50,13.30 365.63,28.29 349.86,28.29 362.62,37.56 357.75,52.56 370.50,43.29 383.25,52.56 378.38,37.56 391.14,28.29 375.37,28.29" fill="#fff"/>
<polygon points="452.83,13.30 447.96,28.29 432.20,28.29 444.95,37.56 440.08,52.56 452.83,43.29 465.59,52.56 460.72,37.56 473.47,28.29 457.71,28.29" fill="#fff"/>
<polygon points="82.33,48.30 77.46,63.29 61.70,63.29 74.45,72.56 69.58,87.56 82.33,78.29 95.09,87.56 90.22,72.56 102.97,63.29 87.21,63.29" fill="#fff"/>
<polygon points="164.67,48.30 159.79,63.29 144.03,63.29 156.78,72.56 151.91,87.56 164.67,78.29 177.42,87.56 172.55,72.56 185.30,63.29 169.54,63.29" fill="#fff"/>
<polygon points="247.00,48.30 242.13,63.29 226.36,63.29 239.12,72.56 234.25,87.56 247.00,78.29 259.75,87.56 254.88,72.56 267.64,63.29 251.87,63.29" fill="#fff"/>
<polygon points="329.33,48.30 324.46,63.29 308.70,63.29 321.45,72.56 316.58,87.56 329.33,78.29 342.09,87.56 337.22,72.56 349.97,63.29 334.21,63.29" fill="#fff"/>
<polygon points="411.67,48.30 406.79,63.29 391.03,63.29 403.78,72.56 398.91,87.56 411.67,78.29 424.42,87.56 419.55,72.56 432.30,63.29 416.54,63.29" fill="#fff"/>
<polygon points="41.17,83.30 36.29,98.29 20.53,98.29 33.28,107.56 28.41,122.56 41.17,113.29 53.92,122.56 49.05,107.56 61.80,98.29 46.04,98.29" fill="#fff"/>
<polygon points="123.50,83.30 118.63,98.29 102.86,98.29 115.62,107.56 110.75,122.56 123.50,113.29 136.25,122.56 131.38,107.56 144.14,98.29 128.37,98.29" fill="#fff"/>
<polygon points="205.83,83.30 200.96,98.29 185.20,98.29 197.95,107.56 193.08,122.56 205.83,113.29 218.59,122.56 213.72,107.56 226.47,98.29 210.71,98.29" fill="#fff"/>
<polygon points="288.17,83.30 283.29,98.29 267.53,98.29 280.28,107.56 275.41,122.56 288.17,113.29 300.92,122.56 296.05,107.56 308.80,98.29 293.04,98.29" fill="#fff"/>
<polygon points="370.50,83.30 365.63,98.29 349.86,98.29 362.62,107.56 357.75,122.56 370.50,113.29 383.25,122.56 378.38,107.56 391.14,98.29 375.37,98.29" fill="#fff"/>
<polygon points="452.83,83.30 447.96,98.29 432.20,98.29 444.95,107.56 440.08,122.56 452.83,113.29 465.59,122.56 460.72,107.56 473.47,98.29 457.71,98.29" fill="#fff"/>
<polygon points="82.33,118.30 77.46,133.29 61.70,133.29 74.45,142.56 69.58,157.56 82.33,148.29 95.09,157.56 90.22,142.56 102.97,133.29 87.21,133.29" fill="#fff"/>
<polygon points="164.67,118.30 159.79,133.29 144.03,133.29 156.78,142.56 151.91,157.56 164.67,148.29 177.42,157.56 172.55,142.56 185.30,133.29 169.54,133.29" fill="#fff"/>
<polygon points="247.00,118.30 242.13,133.29 226.36,133.29 239.12,142.56 234.25,157.56 247.00,148.29 259.75,157.56 254.88,142.56 267.64,133.29 251.87,133.29" fill="#fff"/>
<polygon points="329.33,118.30 324.46,133.29 308.70,133.29 321.45,142.56 316.58,157.56 329.33,148.29 342.09,157.56 337.22,142.56 349.97,133.29 334.21,133.29" fill="#fff"/>
<polygon points="411.67,118.30 406.79,133.29 391.03,133.29 403.78,142.56 398.91,157.56 411.67,148.29 424.42,157.56 419.55,142.56 432.30,133.29 416.54,133.29" fill="#fff"/>
<polygon points="41.17,153.30 36.29,168.29 20.53,168.29 33.28,177.56 28.41,192.56 41.17,183.29 53.92,192.56 49.05,177.56 61.80,168.29 46.04,168.29" fill="#fff"/>
<polygon points="123.50,153.30 118.63,168.29 102.86,168.29 115.62,177.56 110.75,192.56 123.50,183.29 136.25,192.56 131.38,177.56 144.14,168.29 128.37,168.29" fill="#fff"/>
<polygon points="205.83,153.30 200.96,168.29 185.20,168.29 197.95,177.56 193.08,192.56 205.83,183.29 218.59,192.56 213.72,177.56 226.47,168.29 210.71,168.29" fill="#fff"/>
<polygon points="288.17,153.30 283.29,168.29 267.53,168.29 280.28,177.56 275.41,192.56 288.17,183.29 300.92,192.56 296.05,177.56 308.80,168.29 293.04,168.29" fill="#fff"/>
<polygon points="370.50,153.30 365.63,168.29 349.86,168.29 362.62,177.56 357.75,192.56 370.50,183.29 383.25,192.56 378.38,177.56 391.14,168.29 375.37,168.29" fill="#fff"/>
<polygon points="452.83,153.30 447.96,168.29 432.20,168.29 444.95,177.56 440.08,192.56 452.83,183.29 465.59,192.56 460.72,177.56 473.47,168.29 457.71,168.29" fill="#fff"/>
<polygon points="82.33,188.30 77.46,203.29 61.70,203.29 74.45,212.56 69.58,227.56 82.33,218.29 95.09,227.56 90.22,212.56 102.97,203.29 87.21,203.29" fill="#fff"/>
<polygon points="164.67,188.30 159.79,203.29 144.03,203.29 156.78,212.56 151.91,227.56 164.67,218.29 177.42,227.56 172.55,212.56 185.30,203.29 169.54,203.29" fill="#fff"/>
<polygon points="247.00,188.30 242.13,203.29 226.36,203.29 239.12,212.56 234.25,227.56 247.00,218.29 259.75,227.56 254.88,212.56 267.64,203.29 251.87,203.29" fill="#fff"/>
<polygon points="329.33,188.30 324.46,203.29 308.70,203.29 321.45,212.56 316.58,227.56 329.33,218.29 342.09,227.56 337.22,212.56 349.97,203.29 334.21,203.29" fill="#fff"/>
<polygon points="411.67,188.30 406.79,203.29 391.03,203.29 403.78,212.56 398.91,227.56 411.67,218.29 424.42,227.56 419.55,212.56 432.30,203.29 416.54,203.29" fill="#fff"/>
<polygon points="41.17,223.30 36.29,238.29 20.53,238.29 33.28,247.56 28.41,262.56 41.17,253.29 53.92,262.56 49.05,247.56 61.80,238.29 46.04,238.29" fill="#fff"/>
<polygon points="123.50,223.30 118.63,238.29 102.86,238.29 115.62,247.56 110.75,262.56 123.50,253.29 136.25,262.56 131.38,247.56 144.14,238.29 128.37,238.29" fill="#fff"/>
<polygon points="205.83,223.30 200.96,238.29 185.20,238.29 197.95,247.56 193.08,262.56 205.83,253.29 218.59,262.56 213.72,247.56 226.47,238.29 210.71,238.29" fill="#fff"/>
<polygon points="288.17,223.30 283.29,238.29 267.53,238.29 280.28,247.56 275.41,262.56 288.17,253.29 300.92,262.56 296.05,247.56 308.80,238.29 293.04,238.29" fill="#fff"/>
<polygon points="370.50,223.30 365.63,238.29 349.86,238.29 362.62,247.56 357.75,262.56 370.50,253.29 383.25,262.56 378.38,247.56 391.14,238.29 375.37,238.29" fill="#fff"/>
<polygon points="452.83,223.30 447.96,238.29 432.20,238.29 444.95,247.56 440.08,262.56 452.83,253.29 465.59,262.56 460.72,247.56 473.47,238.29 457.71,238.29" fill="#fff"/>
<polygon points="82.33,258.30 77.46,273.29 61.70,273.29 74.45,282.56 69.58,297.56 82.33,288.29 95.09,297.56 90.22,282.56 102.97,273.29 87.21,273.29" fill="#fff"/>
<polygon points="164.67,258.30 159.79,273.29 144.03,273.29 156.78,282.56 151.91,297.56 164.67,288.29 177.42,297.56 172.55,282.56 185.30,273.29 169.54,273.29" fill="#fff"/>
<polygon points="247.00,258.30 242.13,273.29 226.36,273.29 239.12,282.56 234.25,297.56 247.00,288.29 259.75,297.56 254.88,282.56 267.64,273.29 251.87,273.29" fill="#fff"/>
<polygon points="329.33,258.30 324.46,273.29 308.70,273.29 321.45,282.56 316.58,297.56 329.33,288.29 342.09,297.56 337.22,282.56 349.97,273.29 334.21,273.29" fill="#fff"/>
<polygon points="411.67,258.30 406.79,273.29 391.03,273.29 403.78,282.56 398.91,297.56 411.67,288.29 424.42,297.56 419.55,282.56 432.30,273.29 416.54,273.29" fill="#fff"/>
<polygon points="41.17,293.30 36.29,308.29 20.53,308.29 33.28,317.56 28.41,332.56 41.17,323.29 53.92,332.56 49.05,317.56 61.80,308.29 46.04,308.29" fill="#fff"/>
<polygon points="123.50,293.30 118.63,308.29 102.86,308.29 115.62,317.56 110.75,332.56 123.50,323.29 136.25,332.56 131.38,317.56 144.14,308.29 128.37,308.29" fill="#fff"/>
<polygon points="205.83,293.30 200.96,308.29 185.20,308.29 197.95,317.56 193.08,332.56 205.83,323.29 218.59,332.56 213.72,317.56 226.47,308.29 210.71,308.29" fill="#fff"/>
<polygon points="288.17,293.30 283.29,308.29 267.53,308.29 280.28,317.56 275.41,332.56 288.17,323.29 300.92,332.56 296.05,317.56 308.80,308.29 293.04,308.29" fill="#fff"/>
<polygon points="370.50,293.30 365.63,308.29 349.86,308.29 362.62,317.56 357.75,332.56 370.50,323.29 383.25,332.56 378.38,317.56 391.14,308.29 375.37,308.29" fill="#fff"/>
<polygon points="452.83,293.30 447.96,308.29 432.20,308.29 444.95,317.56 440.08,332.56 452.83,323.29 465.59,332.56 460.72,317.56 473.47,308.29 457.71,308.29" fill="#fff"/>
</svg>
